<?xml version="1.0" standalone="no"?>
<!DOCTYPE svg PUBLIC "-//W3C//DTD SVG 20010904//EN"
 "http://www.w3.org/TR/2001/REC-SVG-20010904/DTD/svg10.dtd">
<svg version="1.0" xmlns="http://www.w3.org/2000/svg"
 width="1392.000000pt" height="1392.000000pt" viewBox="0 0 1392.000000 1392.000000"
 preserveAspectRatio="xMidYMid meet">
<metadata>
Created by potrace 1.14, written by Peter Selinger 2001-2017
</metadata>
<g transform="translate(0.000000,1392.000000) scale(0.100000,-0.100000)"
fill="#000000" stroke="none">
<path d="M6905 11228 c-39 -8 -79 -24 -100 -41 -5 -4 -35 -26 -65 -49 -196
-145 -408 -365 -566 -588 -62 -88 -164 -247 -164 -256 0 -2 -12 -23 -26 -46
-38 -60 -155 -297 -204 -413 -23 -55 -46 -109 -51 -120 -32 -74 -134 -365
-144 -410 -6 -26 -55 -195 -62 -215 -3 -8 -7 -24 -9 -35 -5 -27 -9 -43 -22
-90 -6 -22 -13 -51 -16 -65 -7 -39 -25 -122 -31 -150 -17 -73 -56 -313 -60
-368 -15 -227 238 -353 400 -198 63 60 62 59 90 244 6 41 12 72 20 112 3 14 8
43 10 65 3 22 9 54 15 70 5 17 14 57 21 90 6 33 13 67 14 75 2 8 4 15 5 15 1
0 3 7 5 15 1 8 8 35 15 60 7 25 14 53 16 62 2 10 6 26 8 36 2 9 11 40 21 68 9
28 18 57 19 65 2 8 6 21 9 29 3 8 15 47 28 85 12 39 24 75 28 80 3 6 6 16 7
23 2 7 21 61 44 120 126 323 307 655 467 857 4 6 26 33 48 60 21 28 87 99 146
158 l107 108 43 -44 c62 -62 158 -167 198 -217 19 -23 41 -48 48 -56 7 -7 13
-17 13 -22 0 -6 3 -12 8 -14 12 -5 133 -175 194 -273 79 -126 110 -182 179
-325 33 -69 67 -137 75 -152 8 -15 14 -29 13 -30 -1 -2 6 -21 16 -43 22 -55
90 -229 95 -247 1 -4 13 -38 27 -75 13 -37 26 -77 28 -87 3 -11 13 -47 24 -80
10 -34 22 -72 26 -86 3 -14 15 -56 25 -94 10 -38 17 -73 14 -78 -3 -4 -1 -8 4
-8 5 0 9 -6 9 -12 0 -7 8 -49 18 -93 10 -44 19 -89 20 -100 2 -11 4 -22 5 -25
3 -6 3 -10 14 -80 5 -30 10 -64 12 -75 15 -76 15 -74 39 -310 27 -264 28 -847
1 -1030 -2 -16 -7 -61 -11 -100 -3 -38 -8 -72 -10 -75 -1 -3 -6 -27 -9 -54 -4
-27 -9 -52 -11 -56 -2 -3 -6 -26 -10 -50 -3 -25 -8 -52 -10 -60 -2 -8 -7 -28
-9 -45 -11 -63 -72 -282 -108 -390 -16 -49 -31 -94 -32 -100 -2 -5 -6 -17 -9
-25 -4 -8 -22 -55 -41 -105 -53 -138 -81 -202 -95 -219 -8 -9 -11 -16 -7 -16
3 0 -6 -24 -20 -52 -15 -29 -30 -60 -34 -69 -7 -13 -38 -72 -131 -249 -13 -25
-29 -50 -35 -57 -6 -6 -17 -25 -24 -42 -7 -17 -16 -31 -21 -31 -5 0 -9 -5 -9
-11 0 -8 -121 -201 -148 -234 -4 -5 -18 -26 -32 -45 -13 -19 -27 -37 -31 -40
-3 -3 -11 -15 -18 -27 -19 -38 -28 -27 -37 44 -4 38 -8 70 -9 73 0 3 -5 28
-10 55 -5 28 -9 52 -10 55 -1 3 -5 25 -9 50 -5 25 -10 54 -12 65 -2 11 -7 34
-10 50 -5 32 -82 332 -107 425 -9 30 -34 107 -57 170 -22 63 -42 122 -44 130
-4 13 -46 125 -71 185 -5 11 -9 22 -10 25 -5 14 -26 62 -56 125 -18 39 -34 72
-34 75 -1 7 -82 165 -123 240 -47 86 -114 198 -174 289 -26 41 -48 77 -48 82
0 4 -3 9 -7 11 -5 2 -24 26 -42 53 -19 28 -38 52 -41 55 -3 3 -13 16 -21 30
-19 29 -179 231 -219 275 -15 17 -52 57 -81 90 -69 77 -322 328 -425 422 -85
77 -99 89 -163 143 -23 19 -52 43 -64 53 -12 10 -35 28 -50 40 -16 12 -45 37
-65 54 -20 18 -41 33 -45 33 -5 0 -14 6 -22 13 -19 18 -45 38 -100 77 -28 19
-54 38 -60 42 -61 48 -391 252 -424 263 -12 3 -21 11 -21 16 0 5 -9 9 -19 9
-11 0 -21 4 -23 9 -3 9 -334 175 -403 203 -22 9 -85 35 -140 58 -91 38 -365
138 -383 140 -4 0 -25 6 -47 12 -22 6 -44 13 -50 14 -5 1 -35 10 -67 18 -31 8
-67 17 -80 20 -49 10 -164 35 -183 39 -21 5 -116 19 -150 23 -20 2 -107 13
-155 19 -126 17 -507 26 -597 14 -69 -9 -109 -29 -149 -71 -48 -51 -69 -101
-79 -190 -2 -20 -7 -49 -10 -65 -26 -122 -26 -509 0 -693 7 -50 17 -112 22
-135 2 -11 6 -33 8 -50 7 -57 67 -308 85 -355 5 -14 11 -34 13 -45 1 -11 6
-25 9 -31 4 -6 9 -21 12 -35 5 -26 31 -101 45 -134 5 -11 18 -45 29 -75 11
-30 24 -64 28 -75 4 -11 8 -22 9 -25 1 -3 7 -18 14 -35 8 -16 17 -39 22 -50 4
-11 31 -69 59 -128 27 -60 50 -113 50 -118 0 -5 5 -9 10 -9 6 0 10 -6 10 -13
0 -22 183 -361 249 -462 15 -22 33 -52 40 -67 8 -16 18 -28 23 -28 4 0 8 -5 8
-10 0 -6 16 -33 35 -60 19 -27 35 -54 35 -59 0 -5 4 -11 8 -13 5 -1 35 -41 67
-88 91 -132 143 -169 243 -172 100 -3 181 49 223 142 40 89 25 170 -52 275
-67 91 -202 296 -269 410 -62 105 -242 456 -269 524 -10 25 -38 91 -60 146
-38 90 -134 365 -146 419 -3 11 -12 53 -21 91 -8 39 -18 77 -21 85 -7 17 -9
30 -16 80 -3 19 -7 42 -10 50 -3 8 -9 42 -12 75 -4 33 -9 83 -12 110 -3 28 -6
128 -7 223 -1 134 2 175 12 181 8 4 41 7 75 5 93 -5 238 -16 272 -20 17 -2 50
-6 75 -9 25 -2 54 -7 66 -9 12 -3 39 -8 60 -11 50 -7 212 -43 284 -62 30 -8
69 -18 85 -23 17 -4 62 -18 100 -31 39 -12 72 -23 75 -24 14 -4 49 -18 80 -32
19 -8 42 -16 50 -18 83 -17 584 -263 737 -362 28 -18 54 -33 58 -33 3 0 11 -4
18 -10 7 -5 59 -41 117 -79 97 -64 221 -152 280 -200 120 -95 197 -158 206
-166 6 -5 49 -44 94 -85 163 -146 427 -416 518 -527 12 -15 34 -41 48 -58 42
-51 190 -249 202 -272 7 -12 18 -28 24 -35 7 -8 18 -23 25 -33 144 -233 252
-433 317 -585 15 -36 34 -78 41 -95 7 -16 21 -50 30 -75 10 -25 23 -58 30 -75
12 -28 35 -97 41 -120 2 -5 10 -30 19 -55 9 -25 19 -52 21 -60 7 -30 56 -195
61 -210 3 -8 7 -24 8 -35 2 -11 13 -58 25 -105 12 -47 24 -96 26 -110 2 -14 7
-41 11 -60 4 -19 8 -39 8 -45 1 -5 4 -23 8 -40 4 -16 9 -48 12 -70 7 -58 10
-69 18 -81 11 -18 -3 -24 -27 -11 -11 7 -23 15 -26 19 -10 13 -241 178 -249
178 -5 0 -11 4 -13 8 -4 12 -243 165 -348 224 -25 14 -63 35 -85 48 -51 29
-315 161 -377 189 -103 46 -383 156 -423 165 -5 2 -17 6 -25 9 -26 10 -124 41
-136 43 -7 1 -52 14 -102 28 -50 14 -99 26 -109 26 -11 0 -24 5 -31 12 -7 7
-12 9 -12 6 0 -3 -17 -2 -37 3 -91 22 -334 65 -428 75 -27 2 -63 7 -80 9 -16
3 -68 8 -115 11 -47 3 -94 7 -105 8 -11 1 -26 5 -32 9 -7 5 -13 4 -13 0 0 -5
-15 -8 -32 -6 -64 8 -524 9 -556 2 -17 -4 -35 -3 -38 2 -3 5 -9 7 -14 4 -5 -3
-41 -8 -80 -10 -109 -7 -272 -21 -345 -31 -22 -3 -51 -7 -65 -9 -14 -1 -45 -6
-70 -10 -25 -4 -56 -9 -70 -10 -14 -2 -25 -4 -25 -5 0 -1 -9 -3 -20 -4 -72
-11 -126 -21 -245 -48 -74 -16 -142 -31 -150 -33 -42 -9 -285 -79 -355 -102
-44 -15 -82 -28 -85 -28 -3 -1 -12 -4 -20 -7 -8 -3 -44 -16 -80 -29 -36 -12
-69 -25 -75 -29 -12 -9 -67 -24 -77 -22 -5 1 -8 -2 -8 -7 0 -7 -20 -16 -60
-26 -3 0 -20 -9 -37 -18 -18 -10 -36 -18 -40 -18 -17 -2 -244 -111 -328 -159
-84 -47 -211 -125 -241 -147 -17 -13 -34 -23 -37 -23 -6 0 -185 -127 -197
-140 -3 -3 -30 -24 -60 -47 -54 -41 -68 -53 -159 -131 -91 -78 -269 -259 -297
-301 -26 -39 -29 -54 -29 -121 0 -71 3 -81 39 -141 22 -35 43 -65 48 -67 4 -2
8 -8 8 -13 0 -10 -2 -7 103 -135 71 -86 202 -223 277 -289 29 -25 95 -78 220
-178 66 -53 315 -209 430 -271 66 -35 191 -98 200 -101 3 -1 35 -16 71 -33 36
-18 69 -32 72 -32 4 0 34 -13 67 -29 33 -16 60 -28 60 -26 0 2 21 -5 46 -17
63 -27 334 -125 369 -132 6 -1 37 -11 70 -21 33 -11 65 -20 70 -20 26 -4 71
-19 83 -28 6 -5 12 -7 12 -4 0 3 29 -3 65 -13 36 -10 68 -19 70 -19 3 -1 6 -1
8 -2 1 0 9 -2 17 -4 8 -1 51 -11 95 -21 93 -21 79 -18 135 -29 53 -10 59 -12
63 -15 2 -2 20 -4 127 -14 36 -4 81 -9 100 -12 35 -5 146 -11 293 -18 42 -1
80 -6 83 -9 4 -3 14 -2 24 3 10 5 20 7 23 4 9 -9 197 -10 197 -2 0 4 11 3 24
-2 13 -5 26 -6 29 -4 9 9 108 10 113 2 3 -5 10 -5 17 -1 6 3 43 8 81 9 77 3
225 12 296 18 25 3 79 8 120 11 41 4 77 8 80 10 3 2 34 6 70 9 36 4 75 8 85
10 32 6 103 18 128 21 34 4 81 13 212 41 66 14 131 27 144 30 14 3 57 14 97
25 40 11 81 22 91 24 45 9 357 112 408 135 11 5 61 26 110 46 189 79 504 253
564 312 34 33 61 80 65 114 3 18 5 35 6 38 8 20 -2 76 -18 113 -39 88 -115
140 -212 143 -67 3 -83 -4 -240 -97 -127 -76 -230 -129 -249 -129 -6 0 -11 -4
-11 -10 0 -5 -4 -10 -9 -10 -5 0 -22 -5 -38 -12 -15 -6 -31 -11 -35 -10 -5 1
-8 -2 -8 -8 0 -5 -9 -10 -19 -10 -11 0 -22 -4 -25 -9 -3 -5 -18 -12 -33 -16
-16 -3 -41 -13 -58 -20 -57 -25 -390 -129 -450 -141 -17 -3 -69 -15 -85 -19
-3 -1 -23 -5 -45 -10 -47 -9 -68 -13 -94 -19 -10 -2 -34 -7 -52 -10 -19 -3
-43 -7 -54 -10 -11 -2 -40 -7 -65 -11 -25 -4 -52 -9 -60 -10 -15 -2 -116 -16
-155 -21 -11 -1 -47 -5 -80 -8 -33 -3 -79 -9 -103 -11 -51 -7 -202 -16 -284
-18 -32 -1 -58 -6 -58 -10 0 -4 -8 -4 -17 1 -20 9 -92 8 -117 -1 -8 -3 -18 -2
-21 3 -4 7 -13 7 -24 0 -10 -5 -21 -7 -24 -4 -6 7 -87 11 -87 4 0 -3 -11 -5
-25 -5 -14 0 -25 2 -25 5 0 3 -53 5 -118 6 -109 1 -222 7 -352 20 -30 3 -71 6
-91 8 -20 2 -41 6 -48 10 -6 4 -11 5 -11 2 0 -2 -23 2 -52 10 -29 7 -54 11
-56 9 -2 -2 -16 1 -30 6 -23 9 -80 23 -182 45 -14 3 -63 16 -110 30 -47 14
-96 27 -110 30 -33 7 -287 92 -325 109 -16 7 -42 17 -58 20 -15 4 -30 11 -33
16 -3 5 -12 9 -20 9 -14 0 -55 17 -161 66 -28 13 -57 24 -62 24 -6 0 -11 5
-11 12 0 6 -3 8 -6 5 -10 -10 -344 166 -352 185 -2 4 -8 8 -13 8 -17 0 -238
150 -309 209 -10 9 -33 27 -50 41 -44 34 -206 195 -257 254 l-42 49 41 38 c22
22 42 39 44 39 2 0 12 8 22 17 38 37 88 79 127 108 22 17 42 33 45 36 3 3 29
22 57 42 29 21 76 53 105 74 68 47 261 163 315 188 24 11 43 23 43 28 0 4 6 7
13 7 6 0 26 7 42 16 40 22 276 125 295 129 8 2 31 10 50 18 62 25 75 30 80 32
3 0 64 20 135 44 72 24 135 44 140 46 6 1 30 7 55 14 25 7 52 15 60 17 8 2 33
8 55 14 38 11 135 33 186 44 13 3 35 8 49 11 14 3 39 7 56 9 17 2 36 6 43 10
6 4 11 5 11 2 0 -2 14 -1 30 4 17 5 53 12 82 15 28 4 60 9 72 11 12 2 46 6 76
10 30 3 66 7 80 9 14 3 68 8 120 11 52 3 111 8 130 10 61 8 560 8 675 1 190
-12 318 -25 365 -37 19 -5 58 -11 85 -14 28 -3 73 -10 100 -16 28 -6 61 -12
75 -15 27 -5 119 -27 170 -40 3 0 30 -7 60 -14 30 -8 62 -17 71 -22 9 -4 28
-10 43 -13 25 -4 82 -23 141 -46 11 -4 61 -22 110 -40 50 -17 104 -37 120 -45
17 -7 48 -20 70 -30 94 -40 358 -172 455 -228 200 -114 628 -409 720 -497 9
-8 40 -35 70 -60 90 -76 151 -131 235 -215 44 -44 105 -100 135 -125 30 -25
61 -52 70 -60 8 -8 47 -40 85 -70 39 -30 72 -57 75 -60 3 -3 23 -19 45 -36 22
-16 46 -35 53 -41 7 -7 17 -13 20 -13 4 0 19 -10 32 -22 43 -39 247 -178 261
-178 5 0 9 -4 9 -9 0 -5 16 -18 35 -28 19 -10 87 -50 152 -89 152 -92 397
-224 416 -224 5 0 22 -9 38 -21 16 -11 29 -18 29 -15 0 3 27 -8 59 -25 33 -16
63 -29 66 -29 9 0 71 -27 108 -46 15 -9 27 -12 27 -9 0 3 10 0 23 -7 12 -6 27
-13 32 -15 6 -1 82 -27 170 -57 88 -31 171 -57 185 -60 14 -2 37 -9 53 -15 15
-6 27 -7 27 -4 0 4 5 2 12 -5 7 -7 21 -12 32 -12 11 0 33 -4 50 -10 50 -15
168 -42 211 -47 21 -2 42 -6 45 -8 7 -4 122 -24 175 -31 17 -2 46 -6 65 -9 19
-3 58 -7 85 -10 28 -3 69 -7 93 -10 103 -11 282 -18 477 -18 261 0 449 8 650
29 33 3 74 7 90 9 40 4 170 22 215 30 8 1 35 6 60 10 25 4 54 9 65 11 11 2 34
7 50 10 17 3 71 14 120 25 50 11 101 22 115 25 14 3 39 9 56 15 17 5 40 11 50
13 10 3 46 12 79 21 82 22 78 21 95 27 8 3 76 25 150 49 74 23 142 46 150 50
8 4 65 26 125 49 61 23 130 51 155 62 119 54 135 61 140 63 20 5 250 127 333
176 111 67 274 175 295 196 7 7 17 13 22 13 5 0 20 11 34 25 14 14 28 25 31
25 5 0 147 115 186 150 9 8 57 52 106 98 155 141 244 239 272 296 27 57 23
160 -10 213 -23 38 -95 138 -114 159 -5 6 -21 26 -35 44 -25 32 -39 49 -111
126 -64 68 -181 178 -266 246 -94 77 -296 218 -312 218 -6 0 -11 5 -11 10 0 6
-6 10 -14 10 -8 0 -16 4 -18 8 -5 15 -391 223 -418 227 -3 0 -21 8 -40 17
-113 52 -239 104 -355 145 -38 13 -79 28 -90 32 -19 8 -188 63 -210 68 -5 1
-35 9 -65 18 -30 9 -89 25 -130 36 -41 11 -82 21 -90 23 -16 5 -137 34 -145
35 -3 1 -7 2 -10 2 -10 3 -21 5 -55 12 -19 4 -46 9 -60 12 -97 21 -266 44
-297 41 -84 -8 -166 -68 -199 -144 -20 -45 -20 -138 -1 -185 20 -47 70 -102
112 -122 20 -9 86 -25 148 -36 114 -19 143 -25 187 -34 14 -3 34 -7 45 -9 11
-2 61 -14 110 -26 97 -23 100 -24 160 -40 22 -6 47 -13 55 -14 16 -3 214 -63
240 -73 22 -9 173 -63 185 -67 6 -2 19 -7 30 -11 11 -4 47 -19 80 -32 72 -29
71 -28 209 -92 59 -28 111 -51 114 -51 3 0 13 -7 23 -16 9 -8 23 -16 31 -18 7
-1 24 -9 38 -17 14 -9 70 -42 125 -75 91 -54 276 -181 334 -229 114 -97 291
-275 291 -295 0 -7 -18 -25 -99 -100 -55 -50 -148 -126 -224 -184 -96 -72
-292 -206 -303 -206 -3 0 -18 -8 -32 -18 -15 -11 -52 -32 -82 -48 -30 -16 -57
-31 -60 -34 -16 -18 -370 -171 -505 -219 -49 -18 -97 -35 -105 -38 -8 -4 -17
-7 -20 -8 -3 0 -50 -16 -105 -34 -55 -18 -107 -34 -115 -36 -8 -1 -35 -8 -60
-15 -25 -7 -54 -14 -65 -17 -37 -8 -50 -11 -50 -13 0 -1 -11 -4 -25 -6 -14 -2
-52 -11 -85 -19 -154 -37 -364 -71 -550 -90 -122 -12 -158 -15 -295 -22 -311
-15 -673 -5 -870 23 -25 3 -58 7 -75 9 -31 4 -191 31 -235 40 -14 3 -45 10
-70 15 -164 34 -487 129 -515 150 -5 5 -12 8 -15 8 -14 -2 -79 21 -130 47 -14
7 -43 18 -65 25 -55 17 -409 189 -413 201 -2 5 -8 9 -14 9 -11 0 -168 90 -255
146 -29 19 -79 51 -110 71 -60 38 -200 138 -218 155 -7 6 -7 9 0 7 6 -1 33 1
60 5 28 4 61 10 75 12 51 7 103 16 119 19 9 2 63 12 121 24 58 11 159 34 225
51 66 17 130 33 142 36 12 2 33 8 45 13 13 5 25 9 28 9 3 0 12 3 20 5 8 3 51
15 95 28 44 13 83 28 87 34 4 5 8 7 8 3 0 -10 242 78 348 127 29 14 55 25 58
25 9 0 246 112 254 120 3 3 41 23 85 45 44 22 82 42 85 45 7 7 37 25 94 57 55
31 57 33 141 87 33 21 62 43 63 47 2 5 8 9 14 9 16 0 171 114 351 260 177 143
524 488 699 694 18 22 42 50 53 62 11 13 30 36 42 51 12 15 31 39 42 52 12 13
21 27 21 30 0 3 16 23 35 44 18 20 31 37 27 37 -4 0 -2 4 4 8 5 4 32 39 59 77
27 39 52 72 55 75 13 13 70 102 70 110 0 6 5 10 10 10 6 0 10 7 10 15 0 8 3
15 8 15 4 0 21 23 37 51 17 28 40 68 53 88 12 20 27 45 33 56 5 11 23 43 40
70 16 28 35 62 42 78 6 15 14 27 18 27 4 0 10 12 14 27 3 15 10 30 14 33 8 5
141 275 141 285 0 2 11 28 25 57 92 199 215 561 251 741 2 10 5 26 8 35 3 9 8
31 11 47 26 138 37 205 40 232 2 17 7 51 11 75 3 24 8 59 9 78 2 19 7 73 11
120 5 47 8 186 8 310 0 215 -1 227 -23 269 -40 77 -100 122 -182 136 -18 3
-35 7 -38 9 -3 2 -33 7 -66 11 -33 3 -76 9 -95 11 -19 3 -77 7 -128 8 -51 2
-95 6 -98 9 -4 3 -17 2 -30 -3 -14 -6 -26 -6 -29 1 -4 5 -11 6 -17 3 -6 -4
-48 -8 -92 -9 -45 -1 -110 -5 -146 -9 -74 -8 -246 -35 -320 -51 -14 -3 -34 -7
-45 -9 -11 -2 -38 -9 -60 -15 -22 -5 -53 -13 -70 -15 -16 -3 -88 -24 -160 -46
-71 -23 -134 -43 -140 -44 -42 -12 -355 -136 -431 -171 -87 -40 -276 -135
-369 -185 -150 -81 -435 -255 -447 -274 -5 -6 -8 -7 -8 -1 0 6 -3 6 -8 -1 -4
-5 -31 -25 -59 -44 -29 -18 -53 -37 -53 -42 0 -4 -5 -8 -11 -8 -11 0 -96 -65
-116 -90 -77 -94 -70 -230 16 -321 32 -33 105 -72 115 -61 3 3 6 0 6 -7 0 -7
3 -10 8 -7 4 2 30 5 57 7 28 1 55 6 60 10 6 4 12 7 15 6 7 -2 104 65 108 75 2
4 10 8 17 8 7 0 15 3 17 8 2 4 59 44 128 89 69 45 131 87 138 93 6 6 12 8 12
5 0 -3 20 8 44 25 25 16 47 30 49 30 2 0 44 23 93 51 121 70 485 246 524 253
3 1 10 4 15 8 50 31 448 162 560 184 11 2 45 9 75 16 30 6 60 12 65 13 12 1
103 16 130 21 51 10 158 18 242 18 51 1 93 5 93 9 0 5 5 5 11 1 6 -3 39 -8 73
-9 33 -2 69 -3 78 -4 15 -1 16 -12 13 -102 -7 -158 -24 -329 -40 -409 -3 -14
-7 -40 -10 -59 -2 -18 -7 -41 -9 -50 -3 -9 -7 -32 -10 -51 -14 -85 -102 -397
-135 -475 -5 -11 -19 -47 -31 -80 -13 -33 -30 -75 -37 -92 -7 -18 -14 -36 -15
-40 -1 -5 -14 -34 -30 -65 -15 -31 -28 -60 -28 -63 0 -5 -53 -112 -148 -300
-9 -16 -18 -32 -22 -35 -3 -3 -12 -18 -20 -35 -24 -49 -103 -179 -117 -193 -7
-7 -13 -20 -13 -28 0 -8 -4 -14 -9 -14 -5 0 -13 -10 -17 -22 -4 -13 -10 -25
-13 -28 -4 -3 -33 -43 -66 -90 -32 -47 -63 -88 -69 -92 -6 -4 -7 -8 -3 -8 5 0
2 -6 -5 -13 -7 -8 -22 -26 -33 -41 -65 -90 -156 -201 -279 -340 -83 -95 -419
-432 -480 -481 -27 -22 -60 -50 -75 -63 -14 -13 -62 -51 -106 -85 -44 -33 -82
-64 -85 -67 -5 -7 -17 -15 -151 -104 -41 -27 -92 -61 -114 -76 -36 -24 -77
-48 -170 -102 -36 -21 -281 -142 -350 -174 -213 -98 -628 -234 -850 -279 -16
-4 -39 -8 -50 -11 -11 -2 -42 -8 -70 -14 -93 -20 -163 -33 -249 -44 l-48 -7
34 48 c18 26 35 50 38 53 11 10 197 296 229 350 17 30 36 62 41 70 51 83 108
190 102 190 -4 0 -2 4 3 8 13 9 138 263 138 280 0 6 4 12 9 12 4 0 8 4 8 9 0
5 10 31 22 58 12 26 22 50 23 53 0 3 20 55 44 115 41 104 114 319 126 368 3
12 24 92 46 177 22 85 42 169 45 185 4 31 8 51 18 95 3 14 8 41 11 60 2 19 7
46 10 60 3 14 7 43 9 65 3 22 7 60 11 85 24 185 34 360 34 615 0 181 -1 228
-14 425 -7 115 -21 271 -29 330 -7 50 -17 116 -23 155 -3 22 -7 49 -9 60 -1
11 -5 36 -9 55 -4 19 -8 44 -10 55 -1 11 -5 31 -9 45 -3 14 -8 36 -10 50 -6
29 -13 62 -23 105 -3 17 -7 37 -9 45 -7 49 -130 475 -142 495 -4 5 -7 15 -8
20 -3 14 -52 154 -66 185 -24 57 -49 118 -53 130 -1 3 -9 22 -18 44 -9 21 -17
40 -17 41 0 2 -18 42 -40 89 -22 47 -40 88 -40 92 0 3 -10 20 -22 37 -13 18
-21 32 -18 33 14 2 -251 443 -272 452 -5 2 -8 8 -8 13 0 8 -86 128 -100 139
-4 3 -11 12 -16 21 -8 14 -43 59 -95 120 -144 170 -378 402 -451 447 -45 28
-112 40 -163 30z"/>
</g>
</svg>
