<svg xmlns="http://www.w3.org/2000/svg" width="255.216" height="67.34" viewBox="0 0 255.216 67.34">
  <path
    d="M28.846-29.689H25.154q-2.953,0-2.953-2.531A3.468,3.468,0,0,1,23.414-34.9a4.251,4.251,0,0,1,2.953-1.094H37.784q5.194,0,8.016,2.281a7.877,7.877,0,0,1,2.821,6.5A10.8,10.8,0,0,1,46.5-20.672a11.562,11.562,0,0,1-5.682,4.14q4.825,2.347,4.825,8.068a14.436,14.436,0,0,1-1.991,7.185,15.877,15.877,0,0,1-5.26,5.629Q33.987,7.2,25.1,7.2H21.226l-.316.738a54.352,54.352,0,0,1-2.9,5.774,15.727,15.727,0,0,1-2.716,3.217A14.456,14.456,0,0,1,5.247,20.962,10.92,10.92,0,0,1-2.386,18.22a9.022,9.022,0,0,1-3.019-6.987A10.256,10.256,0,0,1-4.113,6.183,9.341,9.341,0,0,1-.606,2.558,15.6,15.6,0,0,1,7.2.9h9.2ZM32.194-19.8l1.582-.026a8.089,8.089,0,0,0,5.59-1.714,7.169,7.169,0,0,0,1.674-2.32,6.224,6.224,0,0,0,.672-2.637,2.8,2.8,0,0,0-1.925-2.9,10.853,10.853,0,0,0-3.164-.29h-.4ZM23.81.9h2.136q5.643,0,8.569-1.951a9.31,9.31,0,0,0,3.045-3.4,9.042,9.042,0,0,0,1.173-4.351,4.089,4.089,0,0,0-1.542-3.639Q35.648-13.5,31.825-13.5H29.637ZM13.843,7.2H6.987q-5.168,0-5.168,3.691a3.273,3.273,0,0,0,1.121,2.5,3.89,3.89,0,0,0,2.729,1.028,6.809,6.809,0,0,0,4.562-1.912A14.589,14.589,0,0,0,13.843,7.2ZM55.635-5.748H58.4q3.349,0,3.349,2.347A2.972,2.972,0,0,1,60.579-.9,5.3,5.3,0,0,1,57.3,0H52.55a4.747,4.747,0,0,1-3.085-.923A3.031,3.031,0,0,1,48.331-3.4,8.605,8.605,0,0,1,49.1-6.117L59.748-32.326l.29-.712q1.213-2.953,3.876-2.953a2.639,2.639,0,0,1,1.885.738,2.351,2.351,0,0,1,.778,1.767,4.958,4.958,0,0,1-.4,1.793l-.29.712ZM75.12-20.54a8.592,8.592,0,0,1,6.289,2.426,8.288,8.288,0,0,1,2.465,6.17,13.192,13.192,0,0,1-1.292,5.6A12.185,12.185,0,0,1,79.233-1.9,8.1,8.1,0,0,1,76.4-.409,15.994,15.994,0,0,1,72.3,0Q68,0,66.5-1.028A8.136,8.136,0,0,1,62.965-8.2a11.944,11.944,0,0,1,3.612-8.675A11.6,11.6,0,0,1,75.12-20.54Zm-.633,5.616A4.62,4.62,0,0,0,70.928-13a6.47,6.47,0,0,0-1.608,4.245q0,3.059,3.428,3.059a3.874,3.874,0,0,0,3.085-1.239,6.812,6.812,0,0,0,1.793-4.641A3.392,3.392,0,0,0,76.755-14,2.974,2.974,0,0,0,74.487-14.924ZM97.479-20.54a8.592,8.592,0,0,1,6.289,2.426,8.288,8.288,0,0,1,2.465,6.17,13.192,13.192,0,0,1-1.292,5.6A12.185,12.185,0,0,1,101.593-1.9a8.1,8.1,0,0,1-2.834,1.49,15.994,15.994,0,0,1-4.1.409q-4.3,0-5.8-1.028A8.136,8.136,0,0,1,85.324-8.2a11.944,11.944,0,0,1,3.612-8.675A11.6,11.6,0,0,1,97.479-20.54Zm-.633,5.616A4.62,4.62,0,0,0,93.287-13a6.47,6.47,0,0,0-1.608,4.245q0,3.059,3.428,3.059a3.874,3.874,0,0,0,3.085-1.239,6.812,6.812,0,0,0,1.793-4.641A3.392,3.392,0,0,0,99.114-14,2.974,2.974,0,0,0,96.847-14.924Zm42.5,9.176h3.138q3.322,0,3.322,2.347a2.972,2.972,0,0,1-1.173,2.5,5.253,5.253,0,0,1-3.256.9h-5.353a4.194,4.194,0,0,1-2.821-.923,3.034,3.034,0,0,1-1.081-2.426,8.064,8.064,0,0,1,.712-2.795l2.479-6.038a2.643,2.643,0,0,0,.211-.976,1.527,1.527,0,0,0-1.74-1.714,3.956,3.956,0,0,0-2.663,1.213,8.548,8.548,0,0,0-2.109,3.217l-2.953,7.277Q124.611.369,121.843.369A2.612,2.612,0,0,1,120-.343a2.231,2.231,0,0,1-.765-1.687,5.114,5.114,0,0,1,.4-1.793l.29-.712,2.979-7.356a4.42,4.42,0,0,0,.4-1.529,1.288,1.288,0,0,0-.527-1.015,1.888,1.888,0,0,0-1.239-.435q-2.848,0-4.509,4.113L113.933-3.19q-1.45,3.56-4.192,3.56a2.687,2.687,0,0,1-1.859-.7,2.2,2.2,0,0,1-.778-1.7,4.958,4.958,0,0,1,.4-1.793l.29-.712,5.247-12.92q1.107-2.716,3.322-2.716a2.651,2.651,0,0,1,2.848,2.162,13.436,13.436,0,0,1,2.914-2.03,6.742,6.742,0,0,1,2.755-.5,5.734,5.734,0,0,1,5.3,3.085,9,9,0,0,1,6.645-3.085,6.26,6.26,0,0,1,4.232,1.463,4.569,4.569,0,0,1,1.7,3.6,7.314,7.314,0,0,1-.58,2.769Z"
    transform="translate(105.405 42.378)" fill="#00999e" />
  <g transform="translate(4 4)">
    <path
      d="M964.755,550.887c9.586,8.645,18.231,8.474,22.425,8.3a32.094,32.094,0,0,0,12.154-2.933,23.068,23.068,0,0,0,7.275-5.369c-4.707-7.1-16.348-8.559-16.348-8.559"
      transform="translate(-922.609 -508.639)" fill="none" stroke="#00999e" stroke-linecap="round"
      stroke-linejoin="round" stroke-width="3" />
    <path
      d="M0,8.559c9.586,8.645,18.231,8.474,22.425,8.3a32.094,32.094,0,0,0,12.154-2.933,23.072,23.072,0,0,0,7.275-5.369C37.147,1.455,25.506,0,25.506,0"
      transform="translate(36.438 36.16) rotate(-45)" fill="none" stroke="#00999e"
      stroke-linecap="round" stroke-linejoin="round" stroke-width="3" />
    <path
      d="M0,8.559c9.586,8.645,18.231,8.474,22.425,8.3a32.094,32.094,0,0,0,12.154-2.933,23.073,23.073,0,0,0,7.275-5.369C37.147,1.455,25.506,0,25.506,0"
      transform="matrix(-0.017, -1, 1, -0.017, 34.058, 42.143)" fill="none" stroke="#00999e"
      stroke-linecap="round" stroke-linejoin="round" stroke-width="3" />
    <path
      d="M0,8.559c9.586,8.645,18.231,8.474,22.425,8.3a32.1,32.1,0,0,0,12.154-2.933,23.072,23.072,0,0,0,7.275-5.369C37.147,1.455,25.506,0,25.506,0"
      transform="translate(36.163 48.117) rotate(-135)" fill="none" stroke="#00999e"
      stroke-linecap="round" stroke-linejoin="round" stroke-width="3" />
    <path
      d="M0,8.718c9.586,8.645,18.231,8.474,22.425,8.3a32.1,32.1,0,0,0,12.154-2.933,23.072,23.072,0,0,0,7.275-5.369C37.147,1.614,25.506.159,25.506.159S13.38-1.233,5.421,4.225"
      transform="translate(41.848 50.756) rotate(-179)" fill="none" stroke="#00999e"
      stroke-linecap="round" stroke-linejoin="round" stroke-width="3" />
  </g>
</svg>