<svg xmlns="http://www.w3.org/2000/svg" width="87.026" height="53.837" viewBox="0 0 87.026 53.837">
  <g id="Logo_Icon" data-name="Logo Icon" transform="translate(1.526 1.526)">
    <path id="Path_1" data-name="Path 1" d="M964.755,550.887c9.586,8.645,18.231,8.474,22.425,8.3a32.094,32.094,0,0,0,12.154-2.933,23.068,23.068,0,0,0,7.275-5.369c-4.707-7.1-16.348-8.559-16.348-8.559" transform="translate(-922.609 -508.639)" fill="none" stroke="#00999e" stroke-linecap="round" stroke-linejoin="round" stroke-width="3"/>
    <path id="Path_2" data-name="Path 2" d="M0,8.559c9.586,8.645,18.231,8.474,22.425,8.3a32.094,32.094,0,0,0,12.154-2.933,23.072,23.072,0,0,0,7.275-5.369C37.147,1.455,25.506,0,25.506,0" transform="translate(36.438 36.16) rotate(-45)" fill="none" stroke="#00999e" stroke-linecap="round" stroke-linejoin="round" stroke-width="3"/>
    <path id="Path_3" data-name="Path 3" d="M0,8.559c9.586,8.645,18.231,8.474,22.425,8.3a32.094,32.094,0,0,0,12.154-2.933,23.073,23.073,0,0,0,7.275-5.369C37.147,1.455,25.506,0,25.506,0" transform="matrix(-0.017, -1, 1, -0.017, 34.058, 42.143)" fill="none" stroke="#00999e" stroke-linecap="round" stroke-linejoin="round" stroke-width="3"/>
    <path id="Path_4" data-name="Path 4" d="M0,8.559c9.586,8.645,18.231,8.474,22.425,8.3a32.1,32.1,0,0,0,12.154-2.933,23.072,23.072,0,0,0,7.275-5.369C37.147,1.455,25.506,0,25.506,0" transform="translate(36.163 48.117) rotate(-135)" fill="none" stroke="#00999e" stroke-linecap="round" stroke-linejoin="round" stroke-width="3"/>
    <path id="Path_5" data-name="Path 5" d="M0,8.718c9.586,8.645,18.231,8.474,22.425,8.3a32.1,32.1,0,0,0,12.154-2.933,23.072,23.072,0,0,0,7.275-5.369C37.147,1.614,25.506.159,25.506.159S13.38-1.233,5.421,4.225" transform="translate(41.848 50.756) rotate(-179)" fill="none" stroke="#00999e" stroke-linecap="round" stroke-linejoin="round" stroke-width="3"/>
  </g>
</svg>
